<?xml version="1.0" encoding="UTF-8" standalone="no"?>
<!DOCTYPE svg PUBLIC "-//W3C//DTD SVG 1.1//EN"
 "http://www.w3.org/Graphics/SVG/1.1/DTD/svg11.dtd">
<!-- Generated by graphviz version 2.36.0 (20140111.2315)
 -->
<!-- Title: G Pages: 1 -->
<svg width="576pt" height="680pt"
 viewBox="0.00 0.00 576.00 680.00" xmlns="http://www.w3.org/2000/svg" xmlns:xlink="http://www.w3.org/1999/xlink">
<g id="graph0" class="graph" transform="scale(1 1) rotate(0) translate(4 676)">
<title>G</title>
<polygon fill="white" stroke="none" points="-4,4 -4,-676 572,-676 572,4 -4,4"/>
<g id="clust1" class="cluster"><title>cluster_Global</title>
<path fill="none" stroke="gray" d="M302,-8C302,-8 548,-8 548,-8 554,-8 560,-14 560,-20 560,-20 560,-652 560,-652 560,-658 554,-664 548,-664 548,-664 302,-664 302,-664 296,-664 290,-658 290,-652 290,-652 290,-20 290,-20 290,-14 296,-8 302,-8"/>
<text text-anchor="middle" x="425" y="-651.2" font-family="Times,serif" font-size="11.00" fill="gray">Global</text>
</g>
<g id="clust2" class="cluster"><title>cluster_\Automattic</title>
<path fill="none" stroke="gray" d="M371,-492C371,-492 479,-492 479,-492 485,-492 491,-498 491,-504 491,-504 491,-624 491,-624 491,-630 485,-636 479,-636 479,-636 371,-636 371,-636 365,-636 359,-630 359,-624 359,-624 359,-504 359,-504 359,-498 365,-492 371,-492"/>
<text text-anchor="middle" x="425" y="-623.2" font-family="Times,serif" font-size="11.00" fill="gray">Automattic</text>
</g>
<g id="clust3" class="cluster"><title>cluster_\Automattic\VIP</title>
<path fill="none" stroke="gray" d="M379,-500C379,-500 471,-500 471,-500 477,-500 483,-506 483,-512 483,-512 483,-596 483,-596 483,-602 477,-608 471,-608 471,-608 379,-608 379,-608 373,-608 367,-602 367,-596 367,-596 367,-512 367,-512 367,-506 373,-500 379,-500"/>
<text text-anchor="middle" x="425" y="-595.2" font-family="Times,serif" font-size="11.00" fill="gray">VIP</text>
</g>
<g id="clust6" class="cluster"><title>cluster_\Automattic\VIP\Cache</title>
<path fill="none" stroke="gray" d="M387,-508C387,-508 463,-508 463,-508 469,-508 475,-514 475,-520 475,-520 475,-568 475,-568 475,-574 469,-580 463,-580 463,-580 387,-580 387,-580 381,-580 375,-574 375,-568 375,-568 375,-520 375,-520 375,-514 381,-508 387,-508"/>
<text text-anchor="middle" x="425" y="-567.2" font-family="Times,serif" font-size="11.00" fill="gray">Cache</text>
</g>
<!-- \\Automattic\\VIP\\Cache\\Vary_Cache -->
<g id="node1" class="node"><title>\\Automattic\\VIP\\Cache\\Vary_Cache</title>
<polygon fill="none" stroke="black" points="467,-552 383,-552 383,-516 467,-516 467,-552"/>
<text text-anchor="middle" x="425" y="-531.2" font-family="Courier,monospace" font-size="11.00">Vary_Cache</text>
</g>
<!-- \\WPCOM_VIP_Debug_Bar_Queries -->
<g id="node2" class="node"><title>\\WPCOM_VIP_Debug_Bar_Queries</title>
<polygon fill="none" stroke="black" points="524.5,-484 325.5,-484 325.5,-448 524.5,-448 524.5,-484"/>
<text text-anchor="middle" x="425" y="-463.2" font-family="Courier,monospace" font-size="11.00">WPCOM_VIP_Debug_Bar_Queries</text>
</g>
<!-- \\Debug_Bar_Panel -->
<g id="node11" class="node"><title>\\Debug_Bar_Panel</title>
<ellipse fill="none" stroke="black" cx="113" cy="-358" rx="77.1866" ry="18"/>
<text text-anchor="middle" x="113" y="-354.3" font-family="Times,serif" font-size="14.00" fill="gray">\Debug_Bar_Panel</text>
</g>
<!-- \\WPCOM_VIP_Debug_Bar_Queries&#45;&gt;\\Debug_Bar_Panel -->
<g id="edge1" class="edge"><title>\\WPCOM_VIP_Debug_Bar_Queries&#45;&gt;\\Debug_Bar_Panel</title>
<path fill="none" stroke="black" d="M325.254,-448.831C313.268,-445.948 301.282,-442.677 290,-439 241.267,-423.116 188.191,-397.442 153.208,-379.261"/>
<polygon fill="none" stroke="black" points="154.761,-376.123 144.28,-374.579 151.51,-382.323 154.761,-376.123"/>
</g>
<!-- \\WPCOM_VIP_Debug_Bar_Memcached -->
<g id="node3" class="node"><title>\\WPCOM_VIP_Debug_Bar_Memcached</title>
<polygon fill="none" stroke="black" points="531,-430 319,-430 319,-394 531,-394 531,-430"/>
<text text-anchor="middle" x="425" y="-409.2" font-family="Courier,monospace" font-size="11.00">WPCOM_VIP_Debug_Bar_Memcached</text>
</g>
<!-- \\WPCOM_VIP_Debug_Bar_Memcached&#45;&gt;\\Debug_Bar_Panel -->
<g id="edge2" class="edge"><title>\\WPCOM_VIP_Debug_Bar_Memcached&#45;&gt;\\Debug_Bar_Panel</title>
<path fill="none" stroke="black" d="M320.343,-393.944C276.046,-386.227 225.44,-377.412 185.432,-370.443"/>
<polygon fill="none" stroke="black" points="185.951,-366.981 175.499,-368.713 184.75,-373.877 185.951,-366.981"/>
</g>
<!-- \\WPCOM_VIP_Debug_Bar_Query_Summary -->
<g id="node4" class="node"><title>\\WPCOM_VIP_Debug_Bar_Query_Summary</title>
<polygon fill="none" stroke="black" points="544.5,-376 305.5,-376 305.5,-340 544.5,-340 544.5,-376"/>
<text text-anchor="middle" x="425" y="-355.2" font-family="Courier,monospace" font-size="11.00">WPCOM_VIP_Debug_Bar_Query_Summary</text>
</g>
<!-- \\WPCOM_VIP_Debug_Bar_Query_Summary&#45;&gt;\\Debug_Bar_Panel -->
<g id="edge3" class="edge"><title>\\WPCOM_VIP_Debug_Bar_Query_Summary&#45;&gt;\\Debug_Bar_Panel</title>
<path fill="none" stroke="black" d="M305.475,-358C270.773,-358 233.484,-358 201.117,-358"/>
<polygon fill="none" stroke="black" points="200.79,-354.5 190.79,-358 200.79,-361.5 200.79,-354.5"/>
</g>
<!-- \\WPCOM_VIP_Debug_Bar_DB_Connections -->
<g id="node5" class="node"><title>\\WPCOM_VIP_Debug_Bar_DB_Connections</title>
<polygon fill="none" stroke="black" points="548,-322 302,-322 302,-286 548,-286 548,-322"/>
<text text-anchor="middle" x="425" y="-301.2" font-family="Courier,monospace" font-size="11.00">WPCOM_VIP_Debug_Bar_DB_Connections</text>
</g>
<!-- \\WPCOM_VIP_Debug_Bar_DB_Connections&#45;&gt;\\Debug_Bar_Panel -->
<g id="edge4" class="edge"><title>\\WPCOM_VIP_Debug_Bar_DB_Connections&#45;&gt;\\Debug_Bar_Panel</title>
<path fill="none" stroke="black" d="M320.343,-322.056C276.046,-329.773 225.44,-338.588 185.432,-345.557"/>
<polygon fill="none" stroke="black" points="184.75,-342.123 175.499,-347.287 185.951,-349.019 184.75,-342.123"/>
</g>
<!-- \\WPCOM_VIP_Debug_Bar_PHP -->
<g id="node6" class="node"><title>\\WPCOM_VIP_Debug_Bar_PHP</title>
<polygon fill="none" stroke="black" points="511,-214 339,-214 339,-178 511,-178 511,-214"/>
<text text-anchor="middle" x="425" y="-193.2" font-family="Courier,monospace" font-size="11.00">WPCOM_VIP_Debug_Bar_PHP</text>
</g>
<!-- \\Debug_Bar_PHP -->
<g id="node12" class="node"><title>\\Debug_Bar_PHP</title>
<ellipse fill="none" stroke="black" cx="113" cy="-196" rx="74.187" ry="18"/>
<text text-anchor="middle" x="113" y="-192.3" font-family="Times,serif" font-size="14.00" fill="gray">\Debug_Bar_PHP</text>
</g>
<!-- \\WPCOM_VIP_Debug_Bar_PHP&#45;&gt;\\Debug_Bar_PHP -->
<g id="edge5" class="edge"><title>\\WPCOM_VIP_Debug_Bar_PHP&#45;&gt;\\Debug_Bar_PHP</title>
<path fill="none" stroke="black" d="M338.881,-196C294.814,-196 241.217,-196 197.402,-196"/>
<polygon fill="none" stroke="black" points="197.35,-192.5 187.35,-196 197.35,-199.5 197.35,-192.5"/>
</g>
<!-- \\WPCOM_VIP_Debug_Bar_Remote_Requests -->
<g id="node7" class="node"><title>\\WPCOM_VIP_Debug_Bar_Remote_Requests</title>
<polygon fill="none" stroke="black" points="551.5,-268 298.5,-268 298.5,-232 551.5,-232 551.5,-268"/>
<text text-anchor="middle" x="425" y="-247.2" font-family="Courier,monospace" font-size="11.00">WPCOM_VIP_Debug_Bar_Remote_Requests</text>
</g>
<!-- \\WPCOM_VIP_Debug_Bar_Remote_Requests&#45;&gt;\\Debug_Bar_Panel -->
<g id="edge6" class="edge"><title>\\WPCOM_VIP_Debug_Bar_Remote_Requests&#45;&gt;\\Debug_Bar_Panel</title>
<path fill="none" stroke="black" d="M321.659,-268.046C310.878,-270.71 300.153,-273.691 290,-277 241.267,-292.884 188.191,-318.558 153.208,-336.739"/>
<polygon fill="none" stroke="black" points="151.51,-333.677 144.28,-341.421 154.761,-339.877 151.51,-333.677"/>
</g>
<!-- \\VIP_Suspend_Cache_Invalidation -->
<g id="node8" class="node"><title>\\VIP_Suspend_Cache_Invalidation</title>
<polygon fill="none" stroke="black" points="534.5,-160 315.5,-160 315.5,-124 534.5,-124 534.5,-160"/>
<text text-anchor="middle" x="425" y="-139.2" font-family="Courier,monospace" font-size="11.00">VIP_Suspend_Cache_Invalidation</text>
</g>
<!-- \\WPCOM_VIP_CLI_Command -->
<g id="node9" class="node"><title>\\WPCOM_VIP_CLI_Command</title>
<polygon fill="none" stroke="black" points="504,-106 346,-106 346,-70 504,-70 504,-106"/>
<text text-anchor="middle" x="425" y="-85.2" font-family="Courier,monospace" font-size="11.00">WPCOM_VIP_CLI_Command</text>
</g>
<!-- \\WP_CLI_Command -->
<g id="node13" class="node"><title>\\WP_CLI_Command</title>
<ellipse fill="none" stroke="black" cx="113" cy="-88" rx="87.1846" ry="18"/>
<text text-anchor="middle" x="113" y="-84.3" font-family="Times,serif" font-size="14.00" fill="gray">\WP_CLI_Command</text>
</g>
<!-- \\WPCOM_VIP_CLI_Command&#45;&gt;\\WP_CLI_Command -->
<g id="edge7" class="edge"><title>\\WPCOM_VIP_CLI_Command&#45;&gt;\\WP_CLI_Command</title>
<path fill="none" stroke="black" d="M345.774,-88C304.589,-88 253.73,-88 210.156,-88"/>
<polygon fill="none" stroke="black" points="210.114,-84.5001 200.114,-88 210.114,-91.5001 210.114,-84.5001"/>
</g>
<!-- \\WPCOM_VIP_QM_Collector_DB_Queries -->
<g id="node10" class="node"><title>\\WPCOM_VIP_QM_Collector_DB_Queries</title>
<polygon fill="none" stroke="black" points="544.5,-52 305.5,-52 305.5,-16 544.5,-16 544.5,-52"/>
<text text-anchor="middle" x="425" y="-31.2" font-family="Courier,monospace" font-size="11.00">WPCOM_VIP_QM_Collector_DB_Queries</text>
</g>
<!-- \\QM_Collector_DB_Queries -->
<g id="node14" class="node"><title>\\QM_Collector_DB_Queries</title>
<ellipse fill="none" stroke="black" cx="113" cy="-34" rx="113.18" ry="18"/>
<text text-anchor="middle" x="113" y="-30.3" font-family="Times,serif" font-size="14.00" fill="gray">\QM_Collector_DB_Queries</text>
</g>
<!-- \\WPCOM_VIP_QM_Collector_DB_Queries&#45;&gt;\\QM_Collector_DB_Queries -->
<g id="edge8" class="edge"><title>\\WPCOM_VIP_QM_Collector_DB_Queries&#45;&gt;\\QM_Collector_DB_Queries</title>
<path fill="none" stroke="black" d="M305.475,-34C282.844,-34 259.112,-34 236.363,-34"/>
<polygon fill="none" stroke="black" points="236.335,-30.5001 226.335,-34 236.335,-37.5001 236.335,-30.5001"/>
</g>
</g>
</svg>
