<?xml version="1.0" encoding="UTF-8" standalone="no"?>
<!DOCTYPE svg PUBLIC "-//W3C//DTD SVG 1.1//EN"
 "http://www.w3.org/Graphics/SVG/1.1/DTD/svg11.dtd">
<!-- Generated by graphviz version 2.38.0 (20140413.2041)
 -->
<!-- Title: G Pages: 1 -->
<svg width="911pt" height="680pt"
 viewBox="0.00 0.00 911.46 680.00" xmlns="http://www.w3.org/2000/svg" xmlns:xlink="http://www.w3.org/1999/xlink">
<g id="graph0" class="graph" transform="scale(1 1) rotate(0) translate(4 676)">
<title>G</title>
<polygon fill="white" stroke="none" points="-4,4 -4,-676 907.458,-676 907.458,4 -4,4"/>
<g id="clust1" class="cluster"><title>cluster_Global</title>
<path fill="none" stroke="gray" d="M20,-8C20,-8 883.458,-8 883.458,-8 889.458,-8 895.458,-14 895.458,-20 895.458,-20 895.458,-652 895.458,-652 895.458,-658 889.458,-664 883.458,-664 883.458,-664 20,-664 20,-664 14,-664 8,-658 8,-652 8,-652 8,-20 8,-20 8,-14 14,-8 20,-8"/>
<text text-anchor="middle" x="451.729" y="-651.2" font-family="Times,serif" font-size="11.00" fill="gray">Global</text>
</g>
<g id="clust2" class="cluster"><title>cluster_\Automattic</title>
<path fill="none" stroke="gray" d="M706.958,-492C706.958,-492 814.958,-492 814.958,-492 820.958,-492 826.958,-498 826.958,-504 826.958,-504 826.958,-624 826.958,-624 826.958,-630 820.958,-636 814.958,-636 814.958,-636 706.958,-636 706.958,-636 700.958,-636 694.958,-630 694.958,-624 694.958,-624 694.958,-504 694.958,-504 694.958,-498 700.958,-492 706.958,-492"/>
<text text-anchor="middle" x="760.958" y="-623.2" font-family="Times,serif" font-size="11.00" fill="gray">Automattic</text>
</g>
<g id="clust3" class="cluster"><title>cluster_\Automattic\VIP</title>
<path fill="none" stroke="gray" d="M714.958,-500C714.958,-500 806.958,-500 806.958,-500 812.958,-500 818.958,-506 818.958,-512 818.958,-512 818.958,-596 818.958,-596 818.958,-602 812.958,-608 806.958,-608 806.958,-608 714.958,-608 714.958,-608 708.958,-608 702.958,-602 702.958,-596 702.958,-596 702.958,-512 702.958,-512 702.958,-506 708.958,-500 714.958,-500"/>
<text text-anchor="middle" x="760.958" y="-595.2" font-family="Times,serif" font-size="11.00" fill="gray">VIP</text>
</g>
<g id="clust4" class="cluster"><title>cluster_\Automattic\VIP\Cache</title>
<path fill="none" stroke="gray" d="M722.958,-508C722.958,-508 798.958,-508 798.958,-508 804.958,-508 810.958,-514 810.958,-520 810.958,-520 810.958,-568 810.958,-568 810.958,-574 804.958,-580 798.958,-580 798.958,-580 722.958,-580 722.958,-580 716.958,-580 710.958,-574 710.958,-568 710.958,-568 710.958,-520 710.958,-520 710.958,-514 716.958,-508 722.958,-508"/>
<text text-anchor="middle" x="760.958" y="-567.2" font-family="Times,serif" font-size="11.00" fill="gray">Cache</text>
</g>
<!-- \\Automattic\\VIP\\Cache\\Vary_Cache -->
<g id="node1" class="node"><title>\\Automattic\\VIP\\Cache\\Vary_Cache</title>
<polygon fill="none" stroke="black" points="802.958,-552 718.958,-552 718.958,-516 802.958,-516 802.958,-552"/>
<text text-anchor="middle" x="760.958" y="-531.2" font-family="Courier,monospace" font-size="11.00">Vary_Cache</text>
</g>
<!-- \\WPCOM_VIP_Debug_Bar_Queries -->
<g id="node2" class="node"><title>\\WPCOM_VIP_Debug_Bar_Queries</title>
<polygon fill="none" stroke="black" points="860.458,-484 661.458,-484 661.458,-448 860.458,-448 860.458,-484"/>
<text text-anchor="middle" x="760.958" y="-463.2" font-family="Courier,monospace" font-size="11.00">WPCOM_VIP_Debug_Bar_Queries</text>
</g>
<!-- Debug_Bar_Panel -->
<g id="node12" class="node"><title>Debug_Bar_Panel</title>
<ellipse fill="none" stroke="black" cx="426.62" cy="-358" rx="92.8835" ry="18"/>
<text text-anchor="middle" x="426.62" y="-354.3" font-family="Times,serif" font-size="14.00" fill="gray">Debug_Bar_Panel</text>
</g>
<!-- \\WPCOM_VIP_Debug_Bar_Queries&#45;&gt;Debug_Bar_Panel -->
<g id="edge1" class="edge"><title>\\WPCOM_VIP_Debug_Bar_Queries&#45;&gt;Debug_Bar_Panel</title>
<path fill="none" stroke="black" d="M667.677,-447.931C656.417,-445.203 645.128,-442.214 634.458,-439 577.933,-421.973 515.052,-396.348 473.627,-378.494"/>
<polygon fill="none" stroke="black" points="474.917,-375.239 464.35,-374.471 472.132,-381.661 474.917,-375.239"/>
</g>
<!-- \\WPCOM_VIP_Debug_Bar_Memcached -->
<g id="node3" class="node"><title>\\WPCOM_VIP_Debug_Bar_Memcached</title>
<polygon fill="none" stroke="black" points="866.958,-430 654.958,-430 654.958,-394 866.958,-394 866.958,-430"/>
<text text-anchor="middle" x="760.958" y="-409.2" font-family="Courier,monospace" font-size="11.00">WPCOM_VIP_Debug_Bar_Memcached</text>
</g>
<!-- \\WPCOM_VIP_Debug_Bar_Memcached&#45;&gt;Debug_Bar_Panel -->
<g id="edge2" class="edge"><title>\\WPCOM_VIP_Debug_Bar_Memcached&#45;&gt;Debug_Bar_Panel</title>
<path fill="none" stroke="black" d="M654.804,-394.914C607.435,-387.217 552.383,-378.272 508.337,-371.115"/>
<polygon fill="none" stroke="black" points="508.685,-367.626 498.253,-369.477 507.562,-374.535 508.685,-367.626"/>
</g>
<!-- \\WPCOM_VIP_Debug_Bar_Query_Summary -->
<g id="node4" class="node"><title>\\WPCOM_VIP_Debug_Bar_Query_Summary</title>
<polygon fill="none" stroke="black" points="880.458,-376 641.458,-376 641.458,-340 880.458,-340 880.458,-376"/>
<text text-anchor="middle" x="760.958" y="-355.2" font-family="Courier,monospace" font-size="11.00">WPCOM_VIP_Debug_Bar_Query_Summary</text>
</g>
<!-- \\WPCOM_VIP_Debug_Bar_Query_Summary&#45;&gt;Debug_Bar_Panel -->
<g id="edge3" class="edge"><title>\\WPCOM_VIP_Debug_Bar_Query_Summary&#45;&gt;Debug_Bar_Panel</title>
<path fill="none" stroke="black" d="M641.384,-358C604.991,-358 565.272,-358 530.054,-358"/>
<polygon fill="none" stroke="black" points="529.764,-354.5 519.764,-358 529.764,-361.5 529.764,-354.5"/>
</g>
<!-- \\WPCOM_VIP_Debug_Bar_DB_Connections -->
<g id="node5" class="node"><title>\\WPCOM_VIP_Debug_Bar_DB_Connections</title>
<polygon fill="none" stroke="black" points="883.958,-322 637.958,-322 637.958,-286 883.958,-286 883.958,-322"/>
<text text-anchor="middle" x="760.958" y="-301.2" font-family="Courier,monospace" font-size="11.00">WPCOM_VIP_Debug_Bar_DB_Connections</text>
</g>
<!-- \\WPCOM_VIP_Debug_Bar_DB_Connections&#45;&gt;Debug_Bar_Panel -->
<g id="edge4" class="edge"><title>\\WPCOM_VIP_Debug_Bar_DB_Connections&#45;&gt;Debug_Bar_Panel</title>
<path fill="none" stroke="black" d="M648.832,-322.056C602.888,-329.522 550.615,-338.015 508.422,-344.871"/>
<polygon fill="none" stroke="black" points="507.787,-341.428 498.478,-346.487 508.91,-348.337 507.787,-341.428"/>
</g>
<!-- \\WPCOM_VIP_Debug_Bar_PHP -->
<g id="node6" class="node"><title>\\WPCOM_VIP_Debug_Bar_PHP</title>
<polygon fill="none" stroke="black" points="846.958,-214 674.958,-214 674.958,-178 846.958,-178 846.958,-214"/>
<text text-anchor="middle" x="760.958" y="-193.2" font-family="Courier,monospace" font-size="11.00">WPCOM_VIP_Debug_Bar_PHP</text>
</g>
<!-- Debug_Bar_PHP -->
<g id="node13" class="node"><title>Debug_Bar_PHP</title>
<ellipse fill="none" stroke="black" cx="426.62" cy="-196" rx="88.2844" ry="18"/>
<text text-anchor="middle" x="426.62" y="-192.3" font-family="Times,serif" font-size="14.00" fill="gray">Debug_Bar_PHP</text>
</g>
<!-- \\WPCOM_VIP_Debug_Bar_PHP&#45;&gt;Debug_Bar_PHP -->
<g id="edge5" class="edge"><title>\\WPCOM_VIP_Debug_Bar_PHP&#45;&gt;Debug_Bar_PHP</title>
<path fill="none" stroke="black" d="M674.804,-196C629.205,-196 572.829,-196 525.437,-196"/>
<polygon fill="none" stroke="black" points="525.158,-192.5 515.158,-196 525.158,-199.5 525.158,-192.5"/>
</g>
<!-- \\WPCOM_VIP_Debug_Bar_Remote_Requests -->
<g id="node7" class="node"><title>\\WPCOM_VIP_Debug_Bar_Remote_Requests</title>
<polygon fill="none" stroke="black" points="887.458,-268 634.458,-268 634.458,-232 887.458,-232 887.458,-268"/>
<text text-anchor="middle" x="760.958" y="-247.2" font-family="Courier,monospace" font-size="11.00">WPCOM_VIP_Debug_Bar_Remote_Requests</text>
</g>
<!-- \\WPCOM_VIP_Debug_Bar_Remote_Requests&#45;&gt;Debug_Bar_Panel -->
<g id="edge6" class="edge"><title>\\WPCOM_VIP_Debug_Bar_Remote_Requests&#45;&gt;Debug_Bar_Panel</title>
<path fill="none" stroke="black" d="M667.677,-268.069C656.417,-270.797 645.128,-273.786 634.458,-277 577.933,-294.027 515.052,-319.652 473.627,-337.506"/>
<polygon fill="none" stroke="black" points="472.132,-334.339 464.35,-341.529 474.917,-340.761 472.132,-334.339"/>
</g>
<!-- \\VIP_Suspend_Cache_Invalidation -->
<g id="node8" class="node"><title>\\VIP_Suspend_Cache_Invalidation</title>
<polygon fill="none" stroke="black" points="870.458,-160 651.458,-160 651.458,-124 870.458,-124 870.458,-160"/>
<text text-anchor="middle" x="760.958" y="-139.2" font-family="Courier,monospace" font-size="11.00">VIP_Suspend_Cache_Invalidation</text>
</g>
<!-- \\VIP_Backup_User_Role_CLI -->
<g id="node9" class="node"><title>\\VIP_Backup_User_Role_CLI</title>
<polygon fill="none" stroke="black" points="850.458,-106 671.458,-106 671.458,-70 850.458,-70 850.458,-106"/>
<text text-anchor="middle" x="760.958" y="-85.2" font-family="Courier,monospace" font-size="11.00">VIP_Backup_User_Role_CLI</text>
</g>
<!-- \\WPCOM_VIP_CLI_Command -->
<g id="node10" class="node"><title>\\WPCOM_VIP_CLI_Command</title>
<polygon fill="none" stroke="black" points="505.62,-106 347.62,-106 347.62,-70 505.62,-70 505.62,-106"/>
<text text-anchor="middle" x="426.62" y="-85.2" font-family="Courier,monospace" font-size="11.00">WPCOM_VIP_CLI_Command</text>
</g>
<!-- \\VIP_Backup_User_Role_CLI&#45;&gt;\\WPCOM_VIP_CLI_Command -->
<g id="edge7" class="edge"><title>\\VIP_Backup_User_Role_CLI&#45;&gt;\\WPCOM_VIP_CLI_Command</title>
<path fill="none" stroke="black" d="M671.334,-88C623.224,-88 563.934,-88 515.88,-88"/>
<polygon fill="none" stroke="black" points="515.804,-84.5001 505.804,-88 515.804,-91.5001 515.804,-84.5001"/>
</g>
<!-- WP_CLI_Command -->
<g id="node14" class="node"><title>WP_CLI_Command</title>
<ellipse fill="none" stroke="black" cx="117.391" cy="-88" rx="101.282" ry="18"/>
<text text-anchor="middle" x="117.391" y="-84.3" font-family="Times,serif" font-size="14.00" fill="gray">WP_CLI_Command</text>
</g>
<!-- \\WPCOM_VIP_CLI_Command&#45;&gt;WP_CLI_Command -->
<g id="edge8" class="edge"><title>\\WPCOM_VIP_CLI_Command&#45;&gt;WP_CLI_Command</title>
<path fill="none" stroke="black" d="M347.298,-88C311.476,-88 268.397,-88 229.32,-88"/>
<polygon fill="none" stroke="black" points="228.949,-84.5001 218.949,-88 228.949,-91.5001 228.949,-84.5001"/>
</g>
<!-- \\WPCOM_VIP_QM_Collector_DB_Queries -->
<g id="node11" class="node"><title>\\WPCOM_VIP_QM_Collector_DB_Queries</title>
<polygon fill="none" stroke="black" points="880.458,-52 641.458,-52 641.458,-16 880.458,-16 880.458,-52"/>
<text text-anchor="middle" x="760.958" y="-31.2" font-family="Courier,monospace" font-size="11.00">WPCOM_VIP_QM_Collector_DB_Queries</text>
</g>
<!-- QM_Collector_DB_Queries -->
<g id="node15" class="node"><title>QM_Collector_DB_Queries</title>
<ellipse fill="none" stroke="black" cx="426.62" cy="-34" rx="135.676" ry="18"/>
<text text-anchor="middle" x="426.62" y="-30.3" font-family="Times,serif" font-size="14.00" fill="gray">QM_Collector_DB_Queries</text>
</g>
<!-- \\WPCOM_VIP_QM_Collector_DB_Queries&#45;&gt;QM_Collector_DB_Queries -->
<g id="edge9" class="edge"><title>\\WPCOM_VIP_QM_Collector_DB_Queries&#45;&gt;QM_Collector_DB_Queries</title>
<path fill="none" stroke="black" d="M641.384,-34C619.137,-34 595.648,-34 572.704,-34"/>
<polygon fill="none" stroke="black" points="572.56,-30.5001 562.56,-34 572.56,-37.5001 572.56,-30.5001"/>
</g>
</g>
</svg>
