<?xml version="1.0" encoding="UTF-8" standalone="no"?>
<!DOCTYPE svg PUBLIC "-//W3C//DTD SVG 1.1//EN"
 "http://www.w3.org/Graphics/SVG/1.1/DTD/svg11.dtd">
<!-- Generated by graphviz version 2.38.0 (20140413.2041)
 -->
<!-- Title: G Pages: 1 -->
<svg width="626pt" height="680pt"
 viewBox="0.00 0.00 625.88 680.00" xmlns="http://www.w3.org/2000/svg" xmlns:xlink="http://www.w3.org/1999/xlink">
<g id="graph0" class="graph" transform="scale(1 1) rotate(0) translate(4 676)">
<title>G</title>
<polygon fill="white" stroke="none" points="-4,4 -4,-676 621.875,-676 621.875,4 -4,4"/>
<g id="clust1" class="cluster"><title>cluster_Global</title>
<path fill="none" stroke="gray" d="M352.875,-8C352.875,-8 597.875,-8 597.875,-8 603.875,-8 609.875,-14 609.875,-20 609.875,-20 609.875,-652 609.875,-652 609.875,-658 603.875,-664 597.875,-664 597.875,-664 352.875,-664 352.875,-664 346.875,-664 340.875,-658 340.875,-652 340.875,-652 340.875,-20 340.875,-20 340.875,-14 346.875,-8 352.875,-8"/>
<text text-anchor="middle" x="475.375" y="-651.2" font-family="Times,serif" font-size="11.00" fill="gray">Global</text>
</g>
<g id="clust2" class="cluster"><title>cluster_\Automattic</title>
<path fill="none" stroke="gray" d="M421.375,-492C421.375,-492 529.375,-492 529.375,-492 535.375,-492 541.375,-498 541.375,-504 541.375,-504 541.375,-624 541.375,-624 541.375,-630 535.375,-636 529.375,-636 529.375,-636 421.375,-636 421.375,-636 415.375,-636 409.375,-630 409.375,-624 409.375,-624 409.375,-504 409.375,-504 409.375,-498 415.375,-492 421.375,-492"/>
<text text-anchor="middle" x="475.375" y="-623.2" font-family="Times,serif" font-size="11.00" fill="gray">Automattic</text>
</g>
<g id="clust3" class="cluster"><title>cluster_\Automattic\VIP</title>
<path fill="none" stroke="gray" d="M429.375,-500C429.375,-500 521.375,-500 521.375,-500 527.375,-500 533.375,-506 533.375,-512 533.375,-512 533.375,-596 533.375,-596 533.375,-602 527.375,-608 521.375,-608 521.375,-608 429.375,-608 429.375,-608 423.375,-608 417.375,-602 417.375,-596 417.375,-596 417.375,-512 417.375,-512 417.375,-506 423.375,-500 429.375,-500"/>
<text text-anchor="middle" x="475.375" y="-595.2" font-family="Times,serif" font-size="11.00" fill="gray">VIP</text>
</g>
<g id="clust4" class="cluster"><title>cluster_\Automattic\VIP\Cache</title>
<path fill="none" stroke="gray" d="M437.375,-508C437.375,-508 513.375,-508 513.375,-508 519.375,-508 525.375,-514 525.375,-520 525.375,-520 525.375,-568 525.375,-568 525.375,-574 519.375,-580 513.375,-580 513.375,-580 437.375,-580 437.375,-580 431.375,-580 425.375,-574 425.375,-568 425.375,-568 425.375,-520 425.375,-520 425.375,-514 431.375,-508 437.375,-508"/>
<text text-anchor="middle" x="475.375" y="-567.2" font-family="Times,serif" font-size="11.00" fill="gray">Cache</text>
</g>
<!-- \\Automattic\\VIP\\Cache\\Vary_Cache -->
<g id="node1" class="node"><title>\\Automattic\\VIP\\Cache\\Vary_Cache</title>
<polygon fill="none" stroke="black" points="517.375,-552 433.375,-552 433.375,-516 517.375,-516 517.375,-552"/>
<text text-anchor="middle" x="475.375" y="-531.2" font-family="Courier,monospace" font-size="11.00">Vary_Cache</text>
</g>
<!-- \\WPCOM_VIP_Debug_Bar_Queries -->
<g id="node2" class="node"><title>\\WPCOM_VIP_Debug_Bar_Queries</title>
<polygon fill="none" stroke="black" points="574.875,-484 375.875,-484 375.875,-448 574.875,-448 574.875,-484"/>
<text text-anchor="middle" x="475.375" y="-463.2" font-family="Courier,monospace" font-size="11.00">WPCOM_VIP_Debug_Bar_Queries</text>
</g>
<!-- \\Debug_Bar_Panel -->
<g id="node11" class="node"><title>\\Debug_Bar_Panel</title>
<ellipse fill="none" stroke="black" cx="138.438" cy="-358" rx="95.5831" ry="18"/>
<text text-anchor="middle" x="138.438" y="-354.3" font-family="Times,serif" font-size="14.00" fill="gray">\Debug_Bar_Panel</text>
</g>
<!-- \\WPCOM_VIP_Debug_Bar_Queries&#45;&gt;\\Debug_Bar_Panel -->
<g id="edge1" class="edge"><title>\\WPCOM_VIP_Debug_Bar_Queries&#45;&gt;\\Debug_Bar_Panel</title>
<path fill="none" stroke="black" d="M375.807,-448.192C363.956,-445.426 352.088,-442.358 340.875,-439 285.717,-422.484 224.663,-396.838 184.389,-378.839"/>
<polygon fill="none" stroke="black" points="185.672,-375.578 175.117,-374.666 182.799,-381.961 185.672,-375.578"/>
</g>
<!-- \\WPCOM_VIP_Debug_Bar_Memcached -->
<g id="node3" class="node"><title>\\WPCOM_VIP_Debug_Bar_Memcached</title>
<polygon fill="none" stroke="black" points="581.375,-430 369.375,-430 369.375,-394 581.375,-394 581.375,-430"/>
<text text-anchor="middle" x="475.375" y="-409.2" font-family="Courier,monospace" font-size="11.00">WPCOM_VIP_Debug_Bar_Memcached</text>
</g>
<!-- \\WPCOM_VIP_Debug_Bar_Memcached&#45;&gt;\\Debug_Bar_Panel -->
<g id="edge2" class="edge"><title>\\WPCOM_VIP_Debug_Bar_Memcached&#45;&gt;\\Debug_Bar_Panel</title>
<path fill="none" stroke="black" d="M369.318,-395.062C321.607,-387.37 266.009,-378.406 221.443,-371.221"/>
<polygon fill="none" stroke="black" points="221.959,-367.759 211.529,-369.623 220.844,-374.67 221.959,-367.759"/>
</g>
<!-- \\WPCOM_VIP_Debug_Bar_Query_Summary -->
<g id="node4" class="node"><title>\\WPCOM_VIP_Debug_Bar_Query_Summary</title>
<polygon fill="none" stroke="black" points="594.875,-376 355.875,-376 355.875,-340 594.875,-340 594.875,-376"/>
<text text-anchor="middle" x="475.375" y="-355.2" font-family="Courier,monospace" font-size="11.00">WPCOM_VIP_Debug_Bar_Query_Summary</text>
</g>
<!-- \\WPCOM_VIP_Debug_Bar_Query_Summary&#45;&gt;\\Debug_Bar_Panel -->
<g id="edge3" class="edge"><title>\\WPCOM_VIP_Debug_Bar_Query_Summary&#45;&gt;\\Debug_Bar_Panel</title>
<path fill="none" stroke="black" d="M355.818,-358C319.507,-358 279.833,-358 244.488,-358"/>
<polygon fill="none" stroke="black" points="244.155,-354.5 234.155,-358 244.155,-361.5 244.155,-354.5"/>
</g>
<!-- \\WPCOM_VIP_Debug_Bar_DB_Connections -->
<g id="node5" class="node"><title>\\WPCOM_VIP_Debug_Bar_DB_Connections</title>
<polygon fill="none" stroke="black" points="598.375,-322 352.375,-322 352.375,-286 598.375,-286 598.375,-322"/>
<text text-anchor="middle" x="475.375" y="-301.2" font-family="Courier,monospace" font-size="11.00">WPCOM_VIP_Debug_Bar_DB_Connections</text>
</g>
<!-- \\WPCOM_VIP_Debug_Bar_DB_Connections&#45;&gt;\\Debug_Bar_Panel -->
<g id="edge4" class="edge"><title>\\WPCOM_VIP_Debug_Bar_DB_Connections&#45;&gt;\\Debug_Bar_Panel</title>
<path fill="none" stroke="black" d="M362.38,-322.056C316.341,-329.479 263.996,-337.918 221.601,-344.753"/>
<polygon fill="none" stroke="black" points="220.92,-341.318 211.605,-346.365 222.035,-348.229 220.92,-341.318"/>
</g>
<!-- \\WPCOM_VIP_Debug_Bar_PHP -->
<g id="node6" class="node"><title>\\WPCOM_VIP_Debug_Bar_PHP</title>
<polygon fill="none" stroke="black" points="561.375,-214 389.375,-214 389.375,-178 561.375,-178 561.375,-214"/>
<text text-anchor="middle" x="475.375" y="-193.2" font-family="Courier,monospace" font-size="11.00">WPCOM_VIP_Debug_Bar_PHP</text>
</g>
<!-- \\Debug_Bar_PHP -->
<g id="node12" class="node"><title>\\Debug_Bar_PHP</title>
<ellipse fill="none" stroke="black" cx="138.438" cy="-196" rx="90.9839" ry="18"/>
<text text-anchor="middle" x="138.438" y="-192.3" font-family="Times,serif" font-size="14.00" fill="gray">\Debug_Bar_PHP</text>
</g>
<!-- \\WPCOM_VIP_Debug_Bar_PHP&#45;&gt;\\Debug_Bar_PHP -->
<g id="edge5" class="edge"><title>\\WPCOM_VIP_Debug_Bar_PHP&#45;&gt;\\Debug_Bar_PHP</title>
<path fill="none" stroke="black" d="M388.99,-196C343.482,-196 287.231,-196 239.661,-196"/>
<polygon fill="none" stroke="black" points="239.648,-192.5 229.648,-196 239.648,-199.5 239.648,-192.5"/>
</g>
<!-- \\WPCOM_VIP_Debug_Bar_Remote_Requests -->
<g id="node7" class="node"><title>\\WPCOM_VIP_Debug_Bar_Remote_Requests</title>
<polygon fill="none" stroke="black" points="601.875,-268 348.875,-268 348.875,-232 601.875,-232 601.875,-268"/>
<text text-anchor="middle" x="475.375" y="-247.2" font-family="Courier,monospace" font-size="11.00">WPCOM_VIP_Debug_Bar_Remote_Requests</text>
</g>
<!-- \\WPCOM_VIP_Debug_Bar_Remote_Requests&#45;&gt;\\Debug_Bar_Panel -->
<g id="edge6" class="edge"><title>\\WPCOM_VIP_Debug_Bar_Remote_Requests&#45;&gt;\\Debug_Bar_Panel</title>
<path fill="none" stroke="black" d="M374.73,-268.06C363.238,-270.76 351.749,-273.744 340.875,-277 285.717,-293.516 224.663,-319.162 184.389,-337.161"/>
<polygon fill="none" stroke="black" points="182.799,-334.039 175.117,-341.334 185.672,-340.422 182.799,-334.039"/>
</g>
<!-- \\VIP_Suspend_Cache_Invalidation -->
<g id="node8" class="node"><title>\\VIP_Suspend_Cache_Invalidation</title>
<polygon fill="none" stroke="black" points="584.875,-160 365.875,-160 365.875,-124 584.875,-124 584.875,-160"/>
<text text-anchor="middle" x="475.375" y="-139.2" font-family="Courier,monospace" font-size="11.00">VIP_Suspend_Cache_Invalidation</text>
</g>
<!-- \\WPCOM_VIP_CLI_Command -->
<g id="node9" class="node"><title>\\WPCOM_VIP_CLI_Command</title>
<polygon fill="none" stroke="black" points="554.375,-106 396.375,-106 396.375,-70 554.375,-70 554.375,-106"/>
<text text-anchor="middle" x="475.375" y="-85.2" font-family="Courier,monospace" font-size="11.00">WPCOM_VIP_CLI_Command</text>
</g>
<!-- \\WP_CLI_Command -->
<g id="node13" class="node"><title>\\WP_CLI_Command</title>
<ellipse fill="none" stroke="black" cx="138.438" cy="-88" rx="104.782" ry="18"/>
<text text-anchor="middle" x="138.438" y="-84.3" font-family="Times,serif" font-size="14.00" fill="gray">\WP_CLI_Command</text>
</g>
<!-- \\WPCOM_VIP_CLI_Command&#45;&gt;\\WP_CLI_Command -->
<g id="edge7" class="edge"><title>\\WPCOM_VIP_CLI_Command&#45;&gt;\\WP_CLI_Command</title>
<path fill="none" stroke="black" d="M396.27,-88C353.769,-88 300.408,-88 253.352,-88"/>
<polygon fill="none" stroke="black" points="253.102,-84.5001 243.102,-88 253.102,-91.5001 253.102,-84.5001"/>
</g>
<!-- \\WPCOM_VIP_QM_Collector_DB_Queries -->
<g id="node10" class="node"><title>\\WPCOM_VIP_QM_Collector_DB_Queries</title>
<polygon fill="none" stroke="black" points="594.875,-52 355.875,-52 355.875,-16 594.875,-16 594.875,-52"/>
<text text-anchor="middle" x="475.375" y="-31.2" font-family="Courier,monospace" font-size="11.00">WPCOM_VIP_QM_Collector_DB_Queries</text>
</g>
<!-- \\QM_Collector_DB_Queries -->
<g id="node14" class="node"><title>\\QM_Collector_DB_Queries</title>
<ellipse fill="none" stroke="black" cx="138.438" cy="-34" rx="138.375" ry="18"/>
<text text-anchor="middle" x="138.438" y="-30.3" font-family="Times,serif" font-size="14.00" fill="gray">\QM_Collector_DB_Queries</text>
</g>
<!-- \\WPCOM_VIP_QM_Collector_DB_Queries&#45;&gt;\\QM_Collector_DB_Queries -->
<g id="edge8" class="edge"><title>\\WPCOM_VIP_QM_Collector_DB_Queries&#45;&gt;\\QM_Collector_DB_Queries</title>
<path fill="none" stroke="black" d="M355.818,-34C333.605,-34 310.135,-34 287.167,-34"/>
<polygon fill="none" stroke="black" points="287.009,-30.5001 277.009,-34 287.009,-37.5001 287.009,-30.5001"/>
</g>
</g>
</svg>
