<?xml version="1.0" encoding="UTF-8" standalone="no"?>
<!DOCTYPE svg PUBLIC "-//W3C//DTD SVG 1.1//EN"
 "http://www.w3.org/Graphics/SVG/1.1/DTD/svg11.dtd">
<!-- Generated by graphviz version 2.38.0 (20140413.2041)
 -->
<!-- Title: G Pages: 1 -->
<svg width="637pt" height="680pt"
 viewBox="0.00 0.00 636.68 680.00" xmlns="http://www.w3.org/2000/svg" xmlns:xlink="http://www.w3.org/1999/xlink">
<g id="graph0" class="graph" transform="scale(1 1) rotate(0) translate(4 676)">
<title>G</title>
<polygon fill="white" stroke="none" points="-4,4 -4,-676 632.676,-676 632.676,4 -4,4"/>
<g id="clust1" class="cluster"><title>cluster_Global</title>
<path fill="none" stroke="gray" d="M20,-8C20,-8 608.676,-8 608.676,-8 614.676,-8 620.676,-14 620.676,-20 620.676,-20 620.676,-652 620.676,-652 620.676,-658 614.676,-664 608.676,-664 608.676,-664 20,-664 20,-664 14,-664 8,-658 8,-652 8,-652 8,-20 8,-20 8,-14 14,-8 20,-8"/>
<text text-anchor="middle" x="314.338" y="-651.2" font-family="Times,serif" font-size="11.00" fill="gray">Global</text>
</g>
<g id="clust2" class="cluster"><title>cluster_\Automattic</title>
<path fill="none" stroke="gray" d="M432.176,-492C432.176,-492 540.176,-492 540.176,-492 546.176,-492 552.176,-498 552.176,-504 552.176,-504 552.176,-624 552.176,-624 552.176,-630 546.176,-636 540.176,-636 540.176,-636 432.176,-636 432.176,-636 426.176,-636 420.176,-630 420.176,-624 420.176,-624 420.176,-504 420.176,-504 420.176,-498 426.176,-492 432.176,-492"/>
<text text-anchor="middle" x="486.176" y="-623.2" font-family="Times,serif" font-size="11.00" fill="gray">Automattic</text>
</g>
<g id="clust3" class="cluster"><title>cluster_\Automattic\VIP</title>
<path fill="none" stroke="gray" d="M440.176,-500C440.176,-500 532.176,-500 532.176,-500 538.176,-500 544.176,-506 544.176,-512 544.176,-512 544.176,-596 544.176,-596 544.176,-602 538.176,-608 532.176,-608 532.176,-608 440.176,-608 440.176,-608 434.176,-608 428.176,-602 428.176,-596 428.176,-596 428.176,-512 428.176,-512 428.176,-506 434.176,-500 440.176,-500"/>
<text text-anchor="middle" x="486.176" y="-595.2" font-family="Times,serif" font-size="11.00" fill="gray">VIP</text>
</g>
<g id="clust4" class="cluster"><title>cluster_\Automattic\VIP\Cache</title>
<path fill="none" stroke="gray" d="M448.176,-508C448.176,-508 524.176,-508 524.176,-508 530.176,-508 536.176,-514 536.176,-520 536.176,-520 536.176,-568 536.176,-568 536.176,-574 530.176,-580 524.176,-580 524.176,-580 448.176,-580 448.176,-580 442.176,-580 436.176,-574 436.176,-568 436.176,-568 436.176,-520 436.176,-520 436.176,-514 442.176,-508 448.176,-508"/>
<text text-anchor="middle" x="486.176" y="-567.2" font-family="Times,serif" font-size="11.00" fill="gray">Cache</text>
</g>
<!-- \\Automattic\\VIP\\Cache\\Vary_Cache -->
<g id="node1" class="node"><title>\\Automattic\\VIP\\Cache\\Vary_Cache</title>
<polygon fill="none" stroke="black" points="528.176,-552 444.176,-552 444.176,-516 528.176,-516 528.176,-552"/>
<text text-anchor="middle" x="486.176" y="-531.2" font-family="Courier,monospace" font-size="11.00">Vary_Cache</text>
</g>
<!-- \\WPCOM_VIP_Debug_Bar_Queries -->
<g id="node2" class="node"><title>\\WPCOM_VIP_Debug_Bar_Queries</title>
<polygon fill="none" stroke="black" points="585.676,-484 386.676,-484 386.676,-448 585.676,-448 585.676,-484"/>
<text text-anchor="middle" x="486.176" y="-463.2" font-family="Courier,monospace" font-size="11.00">WPCOM_VIP_Debug_Bar_Queries</text>
</g>
<!-- Debug_Bar_Panel -->
<g id="node11" class="node"><title>Debug_Bar_Panel</title>
<ellipse fill="none" stroke="black" cx="151.838" cy="-358" rx="92.8835" ry="18"/>
<text text-anchor="middle" x="151.838" y="-354.3" font-family="Times,serif" font-size="14.00" fill="gray">Debug_Bar_Panel</text>
</g>
<!-- \\WPCOM_VIP_Debug_Bar_Queries&#45;&gt;Debug_Bar_Panel -->
<g id="edge1" class="edge"><title>\\WPCOM_VIP_Debug_Bar_Queries&#45;&gt;Debug_Bar_Panel</title>
<path fill="none" stroke="black" d="M392.895,-447.931C381.635,-445.203 370.346,-442.214 359.676,-439 303.151,-421.973 240.27,-396.348 198.845,-378.494"/>
<polygon fill="none" stroke="black" points="200.135,-375.239 189.568,-374.471 197.35,-381.661 200.135,-375.239"/>
</g>
<!-- \\WPCOM_VIP_Debug_Bar_Memcached -->
<g id="node3" class="node"><title>\\WPCOM_VIP_Debug_Bar_Memcached</title>
<polygon fill="none" stroke="black" points="592.176,-430 380.176,-430 380.176,-394 592.176,-394 592.176,-430"/>
<text text-anchor="middle" x="486.176" y="-409.2" font-family="Courier,monospace" font-size="11.00">WPCOM_VIP_Debug_Bar_Memcached</text>
</g>
<!-- \\WPCOM_VIP_Debug_Bar_Memcached&#45;&gt;Debug_Bar_Panel -->
<g id="edge2" class="edge"><title>\\WPCOM_VIP_Debug_Bar_Memcached&#45;&gt;Debug_Bar_Panel</title>
<path fill="none" stroke="black" d="M380.022,-394.914C332.653,-387.217 277.601,-378.272 233.555,-371.115"/>
<polygon fill="none" stroke="black" points="233.903,-367.626 223.471,-369.477 232.78,-374.535 233.903,-367.626"/>
</g>
<!-- \\WPCOM_VIP_Debug_Bar_Query_Summary -->
<g id="node4" class="node"><title>\\WPCOM_VIP_Debug_Bar_Query_Summary</title>
<polygon fill="none" stroke="black" points="605.676,-376 366.676,-376 366.676,-340 605.676,-340 605.676,-376"/>
<text text-anchor="middle" x="486.176" y="-355.2" font-family="Courier,monospace" font-size="11.00">WPCOM_VIP_Debug_Bar_Query_Summary</text>
</g>
<!-- \\WPCOM_VIP_Debug_Bar_Query_Summary&#45;&gt;Debug_Bar_Panel -->
<g id="edge3" class="edge"><title>\\WPCOM_VIP_Debug_Bar_Query_Summary&#45;&gt;Debug_Bar_Panel</title>
<path fill="none" stroke="black" d="M366.602,-358C330.209,-358 290.49,-358 255.272,-358"/>
<polygon fill="none" stroke="black" points="254.982,-354.5 244.982,-358 254.982,-361.5 254.982,-354.5"/>
</g>
<!-- \\WPCOM_VIP_Debug_Bar_DB_Connections -->
<g id="node5" class="node"><title>\\WPCOM_VIP_Debug_Bar_DB_Connections</title>
<polygon fill="none" stroke="black" points="609.176,-322 363.176,-322 363.176,-286 609.176,-286 609.176,-322"/>
<text text-anchor="middle" x="486.176" y="-301.2" font-family="Courier,monospace" font-size="11.00">WPCOM_VIP_Debug_Bar_DB_Connections</text>
</g>
<!-- \\WPCOM_VIP_Debug_Bar_DB_Connections&#45;&gt;Debug_Bar_Panel -->
<g id="edge4" class="edge"><title>\\WPCOM_VIP_Debug_Bar_DB_Connections&#45;&gt;Debug_Bar_Panel</title>
<path fill="none" stroke="black" d="M374.05,-322.056C328.106,-329.522 275.833,-338.015 233.64,-344.871"/>
<polygon fill="none" stroke="black" points="233.005,-341.428 223.696,-346.487 234.128,-348.337 233.005,-341.428"/>
</g>
<!-- \\WPCOM_VIP_Debug_Bar_PHP -->
<g id="node6" class="node"><title>\\WPCOM_VIP_Debug_Bar_PHP</title>
<polygon fill="none" stroke="black" points="572.176,-214 400.176,-214 400.176,-178 572.176,-178 572.176,-214"/>
<text text-anchor="middle" x="486.176" y="-193.2" font-family="Courier,monospace" font-size="11.00">WPCOM_VIP_Debug_Bar_PHP</text>
</g>
<!-- Debug_Bar_PHP -->
<g id="node12" class="node"><title>Debug_Bar_PHP</title>
<ellipse fill="none" stroke="black" cx="151.838" cy="-196" rx="88.2844" ry="18"/>
<text text-anchor="middle" x="151.838" y="-192.3" font-family="Times,serif" font-size="14.00" fill="gray">Debug_Bar_PHP</text>
</g>
<!-- \\WPCOM_VIP_Debug_Bar_PHP&#45;&gt;Debug_Bar_PHP -->
<g id="edge5" class="edge"><title>\\WPCOM_VIP_Debug_Bar_PHP&#45;&gt;Debug_Bar_PHP</title>
<path fill="none" stroke="black" d="M400.022,-196C354.423,-196 298.047,-196 250.655,-196"/>
<polygon fill="none" stroke="black" points="250.376,-192.5 240.376,-196 250.376,-199.5 250.376,-192.5"/>
</g>
<!-- \\WPCOM_VIP_Debug_Bar_Remote_Requests -->
<g id="node7" class="node"><title>\\WPCOM_VIP_Debug_Bar_Remote_Requests</title>
<polygon fill="none" stroke="black" points="612.676,-268 359.676,-268 359.676,-232 612.676,-232 612.676,-268"/>
<text text-anchor="middle" x="486.176" y="-247.2" font-family="Courier,monospace" font-size="11.00">WPCOM_VIP_Debug_Bar_Remote_Requests</text>
</g>
<!-- \\WPCOM_VIP_Debug_Bar_Remote_Requests&#45;&gt;Debug_Bar_Panel -->
<g id="edge6" class="edge"><title>\\WPCOM_VIP_Debug_Bar_Remote_Requests&#45;&gt;Debug_Bar_Panel</title>
<path fill="none" stroke="black" d="M392.895,-268.069C381.635,-270.797 370.346,-273.786 359.676,-277 303.151,-294.027 240.27,-319.652 198.845,-337.506"/>
<polygon fill="none" stroke="black" points="197.35,-334.339 189.568,-341.529 200.135,-340.761 197.35,-334.339"/>
</g>
<!-- \\VIP_Suspend_Cache_Invalidation -->
<g id="node8" class="node"><title>\\VIP_Suspend_Cache_Invalidation</title>
<polygon fill="none" stroke="black" points="595.676,-160 376.676,-160 376.676,-124 595.676,-124 595.676,-160"/>
<text text-anchor="middle" x="486.176" y="-139.2" font-family="Courier,monospace" font-size="11.00">VIP_Suspend_Cache_Invalidation</text>
</g>
<!-- \\WPCOM_VIP_CLI_Command -->
<g id="node9" class="node"><title>\\WPCOM_VIP_CLI_Command</title>
<polygon fill="none" stroke="black" points="565.176,-106 407.176,-106 407.176,-70 565.176,-70 565.176,-106"/>
<text text-anchor="middle" x="486.176" y="-85.2" font-family="Courier,monospace" font-size="11.00">WPCOM_VIP_CLI_Command</text>
</g>
<!-- WP_CLI_Command -->
<g id="node13" class="node"><title>WP_CLI_Command</title>
<ellipse fill="none" stroke="black" cx="151.838" cy="-88" rx="101.282" ry="18"/>
<text text-anchor="middle" x="151.838" y="-84.3" font-family="Times,serif" font-size="14.00" fill="gray">WP_CLI_Command</text>
</g>
<!-- \\WPCOM_VIP_CLI_Command&#45;&gt;WP_CLI_Command -->
<g id="edge7" class="edge"><title>\\WPCOM_VIP_CLI_Command&#45;&gt;WP_CLI_Command</title>
<path fill="none" stroke="black" d="M406.837,-88C364.108,-88 310.506,-88 263.568,-88"/>
<polygon fill="none" stroke="black" points="263.351,-84.5001 253.351,-88 263.351,-91.5001 263.351,-84.5001"/>
</g>
<!-- \\WPCOM_VIP_QM_Collector_DB_Queries -->
<g id="node10" class="node"><title>\\WPCOM_VIP_QM_Collector_DB_Queries</title>
<polygon fill="none" stroke="black" points="605.676,-52 366.676,-52 366.676,-16 605.676,-16 605.676,-52"/>
<text text-anchor="middle" x="486.176" y="-31.2" font-family="Courier,monospace" font-size="11.00">WPCOM_VIP_QM_Collector_DB_Queries</text>
</g>
<!-- QM_Collector_DB_Queries -->
<g id="node14" class="node"><title>QM_Collector_DB_Queries</title>
<ellipse fill="none" stroke="black" cx="151.838" cy="-34" rx="135.676" ry="18"/>
<text text-anchor="middle" x="151.838" y="-30.3" font-family="Times,serif" font-size="14.00" fill="gray">QM_Collector_DB_Queries</text>
</g>
<!-- \\WPCOM_VIP_QM_Collector_DB_Queries&#45;&gt;QM_Collector_DB_Queries -->
<g id="edge8" class="edge"><title>\\WPCOM_VIP_QM_Collector_DB_Queries&#45;&gt;QM_Collector_DB_Queries</title>
<path fill="none" stroke="black" d="M366.602,-34C344.355,-34 320.866,-34 297.922,-34"/>
<polygon fill="none" stroke="black" points="297.778,-30.5001 287.778,-34 297.778,-37.5001 297.778,-30.5001"/>
</g>
</g>
</svg>
