<?xml version="1.0" encoding="UTF-8" standalone="no"?>
<!DOCTYPE svg PUBLIC "-//W3C//DTD SVG 1.1//EN"
 "http://www.w3.org/Graphics/SVG/1.1/DTD/svg11.dtd">
<!-- Generated by graphviz version 2.26.3 (20100126.1600)
 -->
<!-- Title: G Pages: 1 -->
<svg width="636pt" height="530pt"
 viewBox="0.00 0.00 636.00 530.00" xmlns="http://www.w3.org/2000/svg" xmlns:xlink="http://www.w3.org/1999/xlink">
<g id="graph1" class="graph" transform="scale(1 1) rotate(0) translate(4 526)">
<title>G</title>
<polygon fill="white" stroke="white" points="-4,5 -4,-526 633,-526 633,5 -4,5"/>
<g id="graph2" class="cluster"><title>cluster_Global</title>
<polyline fill="none" stroke="gray" points="362,-8 608,-8 "/>
<path fill="none" stroke="gray" d="M608,-8C614,-8 620,-14 620,-20"/>
<polyline fill="none" stroke="gray" points="620,-20 620,-502 "/>
<path fill="none" stroke="gray" d="M620,-502C620,-508 614,-514 608,-514"/>
<polyline fill="none" stroke="gray" points="608,-514 362,-514 "/>
<path fill="none" stroke="gray" d="M362,-514C356,-514 350,-508 350,-502"/>
<polyline fill="none" stroke="gray" points="350,-502 350,-20 "/>
<path fill="none" stroke="gray" d="M350,-20C350,-14 356,-8 362,-8"/>
<text text-anchor="middle" x="485" y="-500.1" font-family="Times Roman,serif" font-size="11.00" fill="gray">Global</text>
</g>
<!-- \\WPCOM_VIP_Debug_Bar_Queries -->
<g id="node5" class="node"><title>\\WPCOM_VIP_Debug_Bar_Queries</title>
<polygon fill="none" stroke="black" points="584,-268 386,-268 386,-232 584,-232 584,-268"/>
<text text-anchor="middle" x="485" y="-247.1" font-family="Courier,monospace" font-size="11.00">WPCOM_VIP_Debug_Bar_Queries</text>
</g>
<!-- \\Debug_Bar_Panel -->
<g id="node15" class="node"><title>\\Debug_Bar_Panel</title>
<ellipse fill="none" stroke="black" cx="143" cy="-358" rx="101.116" ry="18.3848"/>
<text text-anchor="middle" x="143" y="-354.4" font-family="Times Roman,serif" font-size="14.00" fill="gray">\Debug_Bar_Panel</text>
</g>
<!-- \\WPCOM_VIP_Debug_Bar_Queries&#45;&gt;\\Debug_Bar_Panel -->
<g id="edge6" class="edge"><title>\\WPCOM_VIP_Debug_Bar_Queries&#45;&gt;\\Debug_Bar_Panel</title>
<path fill="none" stroke="black" d="M385.352,-267.864C373.364,-270.62 361.353,-273.671 350,-277 293.484,-293.569 230.787,-319.17 189.363,-337.145"/>
<polygon fill="none" stroke="black" points="187.845,-333.988 180.083,-341.199 190.648,-340.403 187.845,-333.988"/>
</g>
<!-- \\WPCOM_VIP_Debug_Bar_Memcached -->
<g id="node6" class="node"><title>\\WPCOM_VIP_Debug_Bar_Memcached</title>
<polygon fill="none" stroke="black" points="591,-484 379,-484 379,-448 591,-448 591,-484"/>
<text text-anchor="middle" x="485" y="-463.1" font-family="Courier,monospace" font-size="11.00">WPCOM_VIP_Debug_Bar_Memcached</text>
</g>
<!-- \\WPCOM_VIP_Debug_Bar_Memcached&#45;&gt;\\Debug_Bar_Panel -->
<g id="edge8" class="edge"><title>\\WPCOM_VIP_Debug_Bar_Memcached&#45;&gt;\\Debug_Bar_Panel</title>
<path fill="none" stroke="black" d="M384.626,-447.968C372.879,-445.256 361.124,-442.261 350,-439 293.484,-422.431 230.787,-396.83 189.363,-378.855"/>
<polygon fill="none" stroke="black" points="190.648,-375.597 180.083,-374.801 187.845,-382.012 190.648,-375.597"/>
</g>
<!-- \\WPCOM_VIP_Debug_Bar_Query_Summary -->
<g id="node7" class="node"><title>\\WPCOM_VIP_Debug_Bar_Query_Summary</title>
<polygon fill="none" stroke="black" points="604,-430 366,-430 366,-394 604,-394 604,-430"/>
<text text-anchor="middle" x="485" y="-409.1" font-family="Courier,monospace" font-size="11.00">WPCOM_VIP_Debug_Bar_Query_Summary</text>
</g>
<!-- \\WPCOM_VIP_Debug_Bar_Query_Summary&#45;&gt;\\Debug_Bar_Panel -->
<g id="edge10" class="edge"><title>\\WPCOM_VIP_Debug_Bar_Query_Summary&#45;&gt;\\Debug_Bar_Panel</title>
<path fill="none" stroke="black" d="M370.643,-393.944C324.352,-386.635 271.818,-378.34 228.889,-371.561"/>
<polygon fill="none" stroke="black" points="229.181,-368.064 218.758,-369.962 228.09,-374.979 229.181,-368.064"/>
</g>
<!-- \\WPCOM_VIP_Debug_Bar_DB_Connections -->
<g id="node8" class="node"><title>\\WPCOM_VIP_Debug_Bar_DB_Connections</title>
<polygon fill="none" stroke="black" points="608,-376 362,-376 362,-340 608,-340 608,-376"/>
<text text-anchor="middle" x="485" y="-355.1" font-family="Courier,monospace" font-size="11.00">WPCOM_VIP_Debug_Bar_DB_Connections</text>
</g>
<!-- \\WPCOM_VIP_Debug_Bar_DB_Connections&#45;&gt;\\Debug_Bar_Panel -->
<g id="edge12" class="edge"><title>\\WPCOM_VIP_Debug_Bar_DB_Connections&#45;&gt;\\Debug_Bar_Panel</title>
<path fill="none" stroke="black" d="M361.53,-358C326.441,-358 288.451,-358 254.14,-358"/>
<polygon fill="none" stroke="black" points="254.093,-354.5 244.093,-358 254.093,-361.5 254.093,-354.5"/>
</g>
<!-- \\WPCOM_VIP_Debug_Bar_PHP -->
<g id="node9" class="node"><title>\\WPCOM_VIP_Debug_Bar_PHP</title>
<polygon fill="none" stroke="black" points="571,-214 399,-214 399,-178 571,-178 571,-214"/>
<text text-anchor="middle" x="485" y="-193.1" font-family="Courier,monospace" font-size="11.00">WPCOM_VIP_Debug_Bar_PHP</text>
</g>
<!-- \\Debug_Bar_PHP -->
<g id="node20" class="node"><title>\\Debug_Bar_PHP</title>
<ellipse fill="none" stroke="black" cx="143" cy="-196" rx="94.7523" ry="18.3848"/>
<text text-anchor="middle" x="143" y="-192.4" font-family="Times Roman,serif" font-size="14.00" fill="gray">\Debug_Bar_PHP</text>
</g>
<!-- \\WPCOM_VIP_Debug_Bar_PHP&#45;&gt;\\Debug_Bar_PHP -->
<g id="edge14" class="edge"><title>\\WPCOM_VIP_Debug_Bar_PHP&#45;&gt;\\Debug_Bar_PHP</title>
<path fill="none" stroke="black" d="M398.699,-196C352.976,-196 296.444,-196 248.172,-196"/>
<polygon fill="none" stroke="black" points="248.003,-192.5 238.003,-196 248.003,-199.5 248.003,-192.5"/>
</g>
<!-- \\WPCOM_VIP_Debug_Bar_Remote_Requests -->
<g id="node10" class="node"><title>\\WPCOM_VIP_Debug_Bar_Remote_Requests</title>
<polygon fill="none" stroke="black" points="611,-322 359,-322 359,-286 611,-286 611,-322"/>
<text text-anchor="middle" x="485" y="-301.1" font-family="Courier,monospace" font-size="11.00">WPCOM_VIP_Debug_Bar_Remote_Requests</text>
</g>
<!-- \\WPCOM_VIP_Debug_Bar_Remote_Requests&#45;&gt;\\Debug_Bar_Panel -->
<g id="edge16" class="edge"><title>\\WPCOM_VIP_Debug_Bar_Remote_Requests&#45;&gt;\\Debug_Bar_Panel</title>
<path fill="none" stroke="black" d="M370.643,-322.056C324.352,-329.365 271.818,-337.66 228.889,-344.439"/>
<polygon fill="none" stroke="black" points="228.09,-341.021 218.758,-346.038 229.181,-347.936 228.09,-341.021"/>
</g>
<!-- \\VIP_Suspend_Cache_Invalidation -->
<g id="node11" class="node"><title>\\VIP_Suspend_Cache_Invalidation</title>
<polygon fill="none" stroke="black" points="594,-160 376,-160 376,-124 594,-124 594,-160"/>
<text text-anchor="middle" x="485" y="-139.1" font-family="Courier,monospace" font-size="11.00">VIP_Suspend_Cache_Invalidation</text>
</g>
<!-- \\WPCOM_VIP_CLI_Command -->
<g id="node12" class="node"><title>\\WPCOM_VIP_CLI_Command</title>
<polygon fill="none" stroke="black" points="564,-106 406,-106 406,-70 564,-70 564,-106"/>
<text text-anchor="middle" x="485" y="-85.1" font-family="Courier,monospace" font-size="11.00">WPCOM_VIP_CLI_Command</text>
</g>
<!-- \\WP_CLI_Command -->
<g id="node23" class="node"><title>\\WP_CLI_Command</title>
<ellipse fill="none" stroke="black" cx="143" cy="-88" rx="106.98" ry="18.3848"/>
<text text-anchor="middle" x="143" y="-84.4" font-family="Times Roman,serif" font-size="14.00" fill="gray">\WP_CLI_Command</text>
</g>
<!-- \\WPCOM_VIP_CLI_Command&#45;&gt;\\WP_CLI_Command -->
<g id="edge18" class="edge"><title>\\WPCOM_VIP_CLI_Command&#45;&gt;\\WP_CLI_Command</title>
<path fill="none" stroke="black" d="M405.679,-88C362.663,-88 308.659,-88 260.821,-88"/>
<polygon fill="none" stroke="black" points="260.712,-84.5001 250.712,-88 260.712,-91.5001 260.712,-84.5001"/>
</g>
<!-- \\WPCOM_VIP_QM_Collector_DB_Queries -->
<g id="node13" class="node"><title>\\WPCOM_VIP_QM_Collector_DB_Queries</title>
<polygon fill="none" stroke="black" points="604,-52 366,-52 366,-16 604,-16 604,-52"/>
<text text-anchor="middle" x="485" y="-31.1" font-family="Courier,monospace" font-size="11.00">WPCOM_VIP_QM_Collector_DB_Queries</text>
</g>
<!-- \\QM_Collector_DB_Queries -->
<g id="node25" class="node"><title>\\QM_Collector_DB_Queries</title>
<ellipse fill="none" stroke="black" cx="143" cy="-34" rx="142.836" ry="18.3848"/>
<text text-anchor="middle" x="143" y="-30.4" font-family="Times Roman,serif" font-size="14.00" fill="gray">\QM_Collector_DB_Queries</text>
</g>
<!-- \\WPCOM_VIP_QM_Collector_DB_Queries&#45;&gt;\\QM_Collector_DB_Queries -->
<g id="edge20" class="edge"><title>\\WPCOM_VIP_QM_Collector_DB_Queries&#45;&gt;\\QM_Collector_DB_Queries</title>
<path fill="none" stroke="black" d="M365.385,-34C343.069,-34 319.465,-34 296.299,-34"/>
<polygon fill="none" stroke="black" points="296.049,-30.5001 286.049,-34 296.049,-37.5001 296.049,-30.5001"/>
</g>
</g>
</svg>
